<?xml version="1.0" standalone="no"?>
<!DOCTYPE svg PUBLIC "-//W3C//DTD SVG 20010904//EN"
 "http://www.w3.org/TR/2001/REC-SVG-20010904/DTD/svg10.dtd">
<svg version="1.0" xmlns="http://www.w3.org/2000/svg"
 width="512.000000pt" height="512.000000pt" viewBox="0 0 512.000000 512.000000"
 preserveAspectRatio="xMidYMid meet">

<g transform="translate(0.000000,512.000000) scale(0.100000,-0.100000)"
fill="#000000" stroke="none">
<path d="M2425 5114 c-167 -25 -294 -63 -425 -129 -337 -170 -576 -484 -657
-865 -24 -116 -25 -363 0 -477 83 -390 323 -702 672 -876 408 -202 910 -156
1280 117 607 449 676 1329 146 1866 -173 175 -385 291 -636 346 -69 15 -321
27 -380 18z m300 -533 c80 -39 155 -120 186 -199 33 -81 32 -204 -1 -287 -32
-82 -123 -173 -205 -205 -83 -33 -206 -34 -287 -1 -81 31 -159 106 -200 189
-30 61 -33 74 -33 162 0 86 3 101 32 161 51 103 146 181 258 210 17 5 65 7
109 4 62 -2 91 -9 141 -34z m50 -971 c195 -50 370 -168 491 -332 49 -67 94
-148 94 -171 0 -8 -26 -36 -57 -64 -392 -339 -943 -376 -1366 -92 -86 58 -177
138 -177 155 0 24 44 104 94 172 140 190 347 314 583 352 84 13 246 4 338 -20z"/>
<path d="M2435 2411 c-11 -5 -31 -21 -45 -36 -24 -26 -25 -32 -28 -181 l-3
-154 -947 0 c-900 0 -949 -1 -988 -19 -47 -22 -80 -59 -95 -110 -6 -23 -9
-136 -7 -308 l3 -273 33 -32 32 -33 130 0 130 0 32 33 33 32 3 155 3 155 819
0 819 0 3 -155 3 -155 33 -32 32 -33 130 0 130 0 32 33 33 32 3 155 3 155 819
0 819 0 3 -155 3 -155 33 -32 32 -33 130 0 130 0 32 33 33 32 3 273 c2 172 -1
285 -7 308 -15 51 -48 88 -95 110 -39 18 -88 19 -988 19 l-947 0 -3 155 -3
155 -33 32 -32 33 -118 2 c-64 2 -126 -1 -137 -6z"/>
<path d="M105 1021 c-48 -22 -69 -44 -90 -94 -13 -30 -15 -96 -15 -409 0 -340
2 -376 19 -413 22 -48 44 -69 94 -90 54 -22 760 -22 814 0 50 21 72 42 94 90
17 37 19 72 19 415 0 343 -2 378 -19 415 -22 48 -44 69 -94 90 -30 13 -96 15
-409 15 -340 0 -376 -2 -413 -19z"/>
<path d="M4476 1024 c-182 -44 -337 -201 -381 -385 -88 -373 251 -712 624
-624 276 66 451 348 386 624 -66 277 -351 452 -629 385z"/>
<path d="M2524 1020 c-40 -9 -85 -36 -105 -63 -17 -24 -352 -614 -389 -686
-51 -101 -7 -222 93 -260 18 -7 173 -11 437 -11 264 0 419 4 437 11 100 37
144 159 93 259 -36 70 -372 663 -389 687 -34 47 -118 77 -177 63z"/>
</g>
</svg>
