<?xml version="1.0" standalone="no"?>
<!DOCTYPE svg PUBLIC "-//W3C//DTD SVG 20010904//EN"
 "http://www.w3.org/TR/2001/REC-SVG-20010904/DTD/svg10.dtd">
<svg version="1.0" xmlns="http://www.w3.org/2000/svg"
 width="512.000000pt" height="512.000000pt" viewBox="0 0 512.000000 512.000000"
 preserveAspectRatio="xMidYMid meet">

<g transform="translate(0.000000,512.000000) scale(0.100000,-0.100000)"
fill="#000000" stroke="none">
<path d="M1540 3105 l0 -2015 1605 0 1605 0 0 1535 0 1535 -407 0 c-394 0
-408 1 -451 21 -26 13 -54 38 -70 62 l-27 41 -3 418 -3 418 -1124 0 -1125 0 0
-2015z m1861 965 c296 -61 576 -230 766 -464 18 -22 34 -38 36 -35 3 2 14 25
25 51 17 40 24 47 40 40 89 -35 292 -129 292 -136 0 -4 -43 -107 -96 -227
-103 -234 -127 -268 -198 -287 -23 -7 -109 -5 -263 5 -125 9 -229 16 -230 17
-1 1 3 79 10 175 l11 173 59 -7 59 -6 -20 29 c-32 44 -140 142 -205 185 -85
57 -209 112 -312 138 -77 21 -112 24 -245 23 -169 -1 -250 -16 -373 -71 -212
-94 -400 -270 -499 -468 -28 -56 -78 -198 -78 -224 -1 -40 -10 -41 -179 -11
-90 16 -165 31 -168 33 -6 7 34 158 61 231 128 339 413 627 762 769 84 34 244
74 339 86 109 13 288 5 406 -19z m888 -1505 c79 -14 146 -27 149 -30 10 -9
-29 -158 -65 -250 -142 -363 -439 -647 -803 -769 -147 -49 -269 -69 -430 -69
-263 0 -511 71 -724 208 -82 52 -200 150 -250 207 l-45 51 -17 -59 c-9 -32
-18 -62 -20 -65 -2 -4 -77 15 -166 40 -143 42 -163 50 -160 67 2 10 35 132 74
269 46 166 78 261 93 281 30 39 81 64 133 64 44 0 532 -77 540 -85 6 -6 -43
-324 -51 -332 -3 -2 -33 0 -66 5 -44 6 -61 6 -58 -2 7 -21 142 -128 216 -172
323 -189 750 -174 1057 37 184 127 340 352 393 571 14 58 19 66 36 63 11 -3
85 -16 164 -30z"/>
<path d="M4173 4775 l2 -290 278 -3 c152 -1 277 1 277 5 0 5 -126 136 -280
293 l-279 285 2 -290z"/>
<path d="M370 2180 l0 -2180 1745 0 1745 0 0 340 0 340 -1363 2 -1362 3 -3
1838 -2 1837 -380 0 -380 0 0 -2180z"/>
</g>
</svg>
