<?xml version="1.0" standalone="no"?>
<!DOCTYPE svg PUBLIC "-//W3C//DTD SVG 20010904//EN"
 "http://www.w3.org/TR/2001/REC-SVG-20010904/DTD/svg10.dtd">
<svg version="1.0" xmlns="http://www.w3.org/2000/svg"
 width="512.000000pt" height="512.000000pt" viewBox="0 0 512.000000 512.000000"
 preserveAspectRatio="xMidYMid meet">

<g transform="translate(0.000000,512.000000) scale(0.100000,-0.100000)"
fill="#000000" stroke="none">
<path d="M3615 4786 c-37 -17 -70 -52 -84 -89 -6 -16 -11 -103 -11 -202 l0
-174 -189 -3 c-207 -3 -216 -6 -265 -72 -21 -27 -21 -38 -24 -777 l-2 -749
-160 0 -160 0 0 415 c0 333 -3 422 -14 448 -8 18 -135 152 -282 299 -224 222
-275 268 -304 273 -19 3 -409 5 -867 3 -822 -3 -832 -3 -859 -24 -15 -11 -37
-33 -48 -48 -21 -27 -21 -28 -21 -1526 0 -1498 0 -1499 21 -1526 11 -15 33
-37 48 -48 27 -21 32 -21 1126 -21 1094 0 1099 0 1126 21 15 11 37 33 48 48
21 27 21 39 24 697 l2 669 160 0 160 0 2 -749 c3 -739 3 -750 24 -777 49 -66
58 -69 264 -72 l189 -3 3 -189 c3 -206 6 -215 72 -264 27 -21 38 -21 566 -21
528 0 539 0 566 21 15 11 37 33 48 48 21 27 21 38 21 566 0 528 0 539 -21 566
-11 15 -33 37 -48 48 -27 21 -38 21 -566 21 -528 0 -539 0 -566 -21 -66 -49
-69 -58 -72 -265 l-3 -189 -80 0 -79 0 0 640 0 640 79 0 80 0 3 -189 c3 -207
6 -216 72 -265 27 -21 38 -21 566 -21 528 0 539 0 566 21 15 11 37 33 48 48
21 27 21 38 21 566 0 528 0 539 -21 566 -11 15 -33 37 -48 48 -27 21 -38 21
-566 21 -528 0 -539 0 -566 -21 -66 -49 -69 -58 -72 -265 l-3 -189 -80 0 -79
0 0 640 0 640 79 0 80 0 3 -189 c3 -207 6 -216 72 -265 27 -21 38 -21 566 -21
528 0 539 0 566 21 15 11 37 33 48 48 21 27 21 38 21 566 0 528 0 539 -21 566
-11 15 -33 37 -48 48 -27 21 -40 21 -554 23 -424 2 -533 0 -557 -11z m-1400
-1451 c33 -32 33 -78 0 -110 l-24 -25 -671 0 -671 0 -24 25 c-16 15 -25 36
-25 55 0 19 9 40 25 55 l24 25 671 0 671 0 24 -25z m0 -480 c33 -32 33 -78 0
-110 l-24 -25 -671 0 -671 0 -24 25 c-16 15 -25 36 -25 55 0 19 9 40 25 55
l24 25 671 0 671 0 24 -25z m0 -480 c33 -32 33 -78 0 -110 l-24 -25 -671 0
-671 0 -24 25 c-16 15 -25 36 -25 55 0 19 9 40 25 55 l24 25 671 0 671 0 24
-25z m0 -480 c33 -32 33 -78 0 -110 l-24 -25 -671 0 -671 0 -24 25 c-16 15
-25 36 -25 55 0 19 9 40 25 55 l24 25 671 0 671 0 24 -25z"/>
</g>
</svg>
