<?xml version="1.0" standalone="no"?>
<!DOCTYPE svg PUBLIC "-//W3C//DTD SVG 20010904//EN"
 "http://www.w3.org/TR/2001/REC-SVG-20010904/DTD/svg10.dtd">
<svg version="1.0" xmlns="http://www.w3.org/2000/svg"
 width="512.000000pt" height="512.000000pt" viewBox="0 0 512.000000 512.000000"
 preserveAspectRatio="xMidYMid meet">

<g transform="translate(0.000000,512.000000) scale(0.100000,-0.100000)"
fill="#000000" stroke="none">
<path d="M862 4929 c-28 -14 -51 -36 -68 -64 l-25 -43 3 -480 c3 -468 4 -481
24 -508 29 -40 65 -64 110 -74 52 -12 3256 -12 3308 0 45 10 81 34 110 74 20
27 21 40 24 508 l3 480 -26 43 c-16 29 -39 50 -68 64 l-43 21 -1655 0 -1654 0
-43 -21z m1733 -159 c50 -19 55 -51 55 -375 l0 -295 39 0 c62 0 101 -19 117
-56 15 -37 11 -58 -19 -91 -20 -22 -26 -23 -227 -23 -201 0 -207 1 -227 23
-30 33 -34 54 -19 91 16 37 55 56 117 56 l39 0 0 191 0 190 -26 -20 c-15 -12
-39 -21 -54 -21 -15 0 -39 9 -54 21 -20 16 -26 29 -26 61 0 38 6 47 98 140
116 119 132 129 187 108z"/>
<path d="M1055 3148 c-40 -14 -84 -56 -101 -95 -18 -41 -21 -934 -3 -980 15
-40 48 -73 94 -94 38 -18 102 -19 1515 -19 1413 0 1477 1 1515 19 46 21 79 54
94 94 15 39 15 935 0 974 -15 40 -48 73 -94 94 -38 18 -101 19 -1515 18 -999
0 -1485 -4 -1505 -11z m1585 -189 c123 -54 193 -190 170 -331 -16 -99 -52
-163 -141 -250 l-80 -78 131 0 c126 0 132 -1 155 -25 32 -31 32 -75 1 -112
l-24 -28 -292 0 -292 0 -24 28 c-25 29 -31 66 -14 96 5 10 67 56 137 103 217
145 274 210 275 318 0 80 -47 133 -120 133 -73 0 -132 -56 -132 -126 0 -14
-11 -38 -24 -53 -52 -61 -146 -20 -146 64 0 205 227 346 420 261z"/>
<path d="M1245 1361 c-47 -12 -72 -28 -102 -68 l-28 -36 -3 -461 c-2 -254 0
-476 3 -494 7 -40 59 -101 102 -118 48 -21 2638 -21 2686 0 43 17 95 78 102
118 3 18 5 240 3 494 l-3 461 -28 36 c-59 78 63 72 -1397 74 -718 0 -1318 -2
-1335 -6z m1402 -182 c141 -43 211 -227 136 -361 l-30 -53 23 -33 c30 -44 46
-120 35 -175 -35 -188 -248 -276 -401 -166 -76 55 -99 122 -59 173 32 40 89
37 135 -9 43 -43 73 -51 112 -31 34 17 42 33 42 81 0 37 -37 75 -72 75 -34 0
-77 29 -85 58 -16 61 14 106 78 116 52 8 79 36 79 83 0 49 -32 83 -78 83 -27
0 -45 -9 -78 -40 -45 -42 -70 -48 -107 -28 -77 40 -56 133 44 200 23 15 58 30
78 34 20 3 41 7 46 9 13 3 61 -4 102 -16z"/>
</g>
</svg>
