<?xml version="1.0" standalone="no"?>
<!DOCTYPE svg PUBLIC "-//W3C//DTD SVG 20010904//EN"
 "http://www.w3.org/TR/2001/REC-SVG-20010904/DTD/svg10.dtd">
<svg version="1.0" xmlns="http://www.w3.org/2000/svg"
 width="512.000000pt" height="512.000000pt" viewBox="0 0 512.000000 512.000000"
 preserveAspectRatio="xMidYMid meet">

<g transform="translate(0.000000,512.000000) scale(0.100000,-0.100000)"
fill="#000000" stroke="none">
<path d="M238 5099 c-23 -12 -46 -35 -58 -59 -20 -39 -20 -54 -20 -2480 0
-2427 0 -2441 20 -2480 13 -26 34 -47 60 -60 39 -20 55 -20 1870 -20 1815 0
1831 0 1870 20 70 36 80 70 80 273 l0 174 -84 7 c-293 22 -552 141 -762 350
-137 137 -232 290 -294 474 l-29 87 -613 5 c-581 5 -615 6 -645 24 -99 60 -92
211 11 260 30 14 100 16 623 16 l589 0 12 103 c10 90 37 220 57 270 7 16 -27
17 -627 17 l-635 0 -34 23 c-91 61 -89 181 5 251 27 21 38 21 744 24 l717 3
30 41 c45 60 179 183 259 238 180 121 372 188 589 206 l87 7 0 573 0 574 -491
0 c-490 0 -491 0 -531 22 -24 14 -48 38 -59 60 -18 35 -19 66 -19 528 l0 490
-1342 0 c-1317 -1 -1344 -1 -1380 -21z m953 -692 c94 -63 88 -193 -12 -252
-29 -17 -52 -20 -169 -20 -117 0 -140 3 -169 20 -100 59 -106 189 -12 252 31
21 45 23 181 23 136 0 150 -2 181 -23z m1400 0 c94 -63 88 -193 -12 -252 -33
-19 -52 -20 -469 -20 -417 0 -436 1 -469 20 -100 59 -106 189 -12 252 l34 23
447 0 447 0 34 -23z m-1415 -678 c108 -52 108 -211 0 -263 -49 -23 -283 -23
-332 0 -109 52 -109 210 0 264 35 17 61 20 165 20 105 0 131 -3 167 -21z
m2100 0 c80 -38 107 -145 55 -217 -46 -65 -9 -62 -871 -62 -701 0 -786 2 -816
16 -109 52 -109 210 0 264 40 20 59 20 815 20 762 0 775 0 817 -21z m-2085
-692 c91 -61 89 -181 -5 -251 -25 -19 -42 -21 -176 -21 -134 0 -151 2 -176 21
-94 70 -96 190 -5 251 31 21 45 23 181 23 136 0 150 -2 181 -23z m2100 0 c91
-61 89 -181 -5 -251 -27 -21 -35 -21 -826 -21 -791 0 -799 0 -826 21 -94 70
-96 190 -5 251 l34 23 797 0 797 0 34 -23z m-2105 -683 c94 -70 96 -190 5
-251 -31 -21 -45 -23 -178 -23 -156 0 -183 7 -222 56 -60 77 -19 204 75 234
16 5 88 8 161 7 115 -2 135 -5 159 -23z m-10 -680 c108 -52 108 -211 0 -263
-61 -30 -270 -31 -331 -1 -109 53 -111 210 -3 263 47 24 285 24 334 1z m3
-689 c100 -59 106 -189 12 -252 -31 -21 -45 -23 -178 -23 -156 0 -183 7 -222
56 -43 54 -37 147 13 193 43 41 91 51 221 49 99 -3 126 -7 154 -23z m1300 0
c100 -59 106 -189 12 -252 -34 -23 -35 -23 -428 -23 -427 0 -428 0 -472 56
-43 54 -37 147 13 193 51 48 75 51 471 48 350 -2 372 -3 404 -22z"/>
<path d="M3260 4675 l0 -355 357 0 358 0 -355 355 c-195 195 -356 355 -357
355 -2 0 -3 -160 -3 -355z"/>
<path d="M3896 2555 c-288 -60 -515 -233 -641 -488 -71 -144 -89 -224 -88
-397 0 -173 18 -255 88 -396 116 -237 322 -405 580 -475 115 -32 335 -32 450
0 318 86 560 328 646 646 18 65 22 107 22 225 0 118 -4 160 -22 225 -86 318
-331 563 -646 646 -104 27 -292 34 -389 14z m572 -553 c40 -29 67 -98 57 -149
-6 -33 -40 -71 -243 -276 -130 -131 -249 -245 -264 -253 -44 -23 -99 -18 -149
15 -24 15 -92 78 -151 138 -79 82 -109 120 -119 151 -23 78 22 159 101 183 66
20 104 5 184 -71 l72 -69 160 161 c87 88 173 169 189 180 40 25 119 21 163
-10z"/>
</g>
</svg>
